<mxfile host="app.diagrams.net" agent="Mozilla/5.0 (Windows NT 10.0; Win64; x64) AppleWebKit/537.36 (KHTML, like Gecko) Chrome/132.0.0.0 Safari/537.36" version="26.0.14">
  <diagram name="Página-1" id="tWMWk7vwW38Ka4dlE-s7">
    <mxGraphModel dx="1434" dy="746" grid="1" gridSize="10" guides="1" tooltips="1" connect="1" arrows="1" fold="1" page="1" pageScale="1" pageWidth="827" pageHeight="1169" math="0" shadow="0">
      <root>
        <mxCell id="0" />
        <mxCell id="1" parent="0" />
        <mxCell id="SNL9erzOYmYFDCcE5JRN-21" value="" style="rounded=0;whiteSpace=wrap;html=1;glass=0;shadow=1;" parent="1" vertex="1">
          <mxGeometry x="70" y="670" width="680" height="470" as="geometry" />
        </mxCell>
        <mxCell id="SNL9erzOYmYFDCcE5JRN-26" style="edgeStyle=orthogonalEdgeStyle;rounded=0;orthogonalLoop=1;jettySize=auto;html=1;" parent="1" source="SNL9erzOYmYFDCcE5JRN-20" target="SNL9erzOYmYFDCcE5JRN-23" edge="1">
          <mxGeometry relative="1" as="geometry">
            <Array as="points">
              <mxPoint x="25" y="765" />
            </Array>
          </mxGeometry>
        </mxCell>
        <mxCell id="SNL9erzOYmYFDCcE5JRN-28" style="edgeStyle=orthogonalEdgeStyle;rounded=0;orthogonalLoop=1;jettySize=auto;html=1;entryX=0.5;entryY=1;entryDx=0;entryDy=0;" parent="1" source="SNL9erzOYmYFDCcE5JRN-20" target="SNL9erzOYmYFDCcE5JRN-25" edge="1">
          <mxGeometry relative="1" as="geometry">
            <Array as="points">
              <mxPoint x="40" y="1010" />
              <mxPoint x="252" y="1010" />
            </Array>
          </mxGeometry>
        </mxCell>
        <mxCell id="SNL9erzOYmYFDCcE5JRN-20" value="&lt;span style=&quot;background-color: transparent; color: light-dark(rgb(0, 0, 0), rgb(255, 255, 255));&quot;&gt;Ciente&lt;/span&gt;&lt;div&gt;&lt;div&gt;&lt;font style=&quot;vertical-align: inherit;&quot;&gt;&lt;font style=&quot;vertical-align: inherit;&quot;&gt;&lt;br&gt;&lt;/font&gt;&lt;/font&gt;&lt;/div&gt;&lt;/div&gt;" style="shape=umlActor;verticalLabelPosition=bottom;verticalAlign=top;html=1;outlineConnect=0;" parent="1" vertex="1">
          <mxGeometry x="10" y="830" width="30" height="60" as="geometry" />
        </mxCell>
        <mxCell id="SNL9erzOYmYFDCcE5JRN-23" value="0.1 Retirar Dinero" style="ellipse;whiteSpace=wrap;html=1;fillColor=#dae8fc;strokeColor=#6c8ebf;" parent="1" vertex="1">
          <mxGeometry x="160" y="740" width="160" height="50" as="geometry" />
        </mxCell>
        <mxCell id="SNL9erzOYmYFDCcE5JRN-24" value="0.2 Consultar Saldo" style="ellipse;whiteSpace=wrap;html=1;fillColor=#d5e8d4;strokeColor=#82b366;" parent="1" vertex="1">
          <mxGeometry x="160" y="830" width="164" height="50" as="geometry" />
        </mxCell>
        <mxCell id="SNL9erzOYmYFDCcE5JRN-25" value="0.3 Depositar Dinero" style="ellipse;whiteSpace=wrap;html=1;fillColor=#f8cecc;strokeColor=#b85450;" parent="1" vertex="1">
          <mxGeometry x="170" y="940" width="164" height="50" as="geometry" />
        </mxCell>
        <mxCell id="SNL9erzOYmYFDCcE5JRN-27" style="edgeStyle=orthogonalEdgeStyle;rounded=0;orthogonalLoop=1;jettySize=auto;html=1;entryX=-0.005;entryY=0.643;entryDx=0;entryDy=0;entryPerimeter=0;" parent="1" source="SNL9erzOYmYFDCcE5JRN-20" target="SNL9erzOYmYFDCcE5JRN-24" edge="1">
          <mxGeometry relative="1" as="geometry" />
        </mxCell>
        <mxCell id="SNL9erzOYmYFDCcE5JRN-29" value="0.1.1. Validar" style="ellipse;whiteSpace=wrap;html=1;" parent="1" vertex="1">
          <mxGeometry x="470" y="770" width="176" height="50" as="geometry" />
        </mxCell>
        <mxCell id="SNL9erzOYmYFDCcE5JRN-38" style="edgeStyle=orthogonalEdgeStyle;rounded=0;orthogonalLoop=1;jettySize=auto;html=1;entryX=1;entryY=0.5;entryDx=0;entryDy=0;" parent="1" source="SNL9erzOYmYFDCcE5JRN-30" target="SNL9erzOYmYFDCcE5JRN-29" edge="1">
          <mxGeometry relative="1" as="geometry" />
        </mxCell>
        <mxCell id="SNL9erzOYmYFDCcE5JRN-39" style="edgeStyle=orthogonalEdgeStyle;rounded=0;orthogonalLoop=1;jettySize=auto;html=1;entryX=1;entryY=0.5;entryDx=0;entryDy=0;" parent="1" source="SNL9erzOYmYFDCcE5JRN-30" target="SNL9erzOYmYFDCcE5JRN-31" edge="1">
          <mxGeometry relative="1" as="geometry" />
        </mxCell>
        <mxCell id="SNL9erzOYmYFDCcE5JRN-30" value="&lt;font style=&quot;vertical-align: inherit;&quot;&gt;&lt;font style=&quot;vertical-align: inherit;&quot;&gt;Banco&lt;/font&gt;&lt;/font&gt;" style="shape=umlActor;verticalLabelPosition=bottom;verticalAlign=top;html=1;outlineConnect=0;" parent="1" vertex="1">
          <mxGeometry x="780" y="825" width="30" height="60" as="geometry" />
        </mxCell>
        <mxCell id="SNL9erzOYmYFDCcE5JRN-31" value="&lt;div&gt;Mostrar Mensaje de&lt;/div&gt;&lt;div&gt;Saldo Insuficiente.&lt;/div&gt;" style="ellipse;whiteSpace=wrap;html=1;" parent="1" vertex="1">
          <mxGeometry x="478" y="885" width="160" height="80" as="geometry" />
        </mxCell>
        <mxCell id="SNL9erzOYmYFDCcE5JRN-32" value="" style="endArrow=none;dashed=1;html=1;dashPattern=1 3;strokeWidth=2;rounded=0;exitX=1;exitY=0.5;exitDx=0;exitDy=0;entryX=0;entryY=0.5;entryDx=0;entryDy=0;fillColor=#008a00;strokeColor=#005700;" parent="1" source="SNL9erzOYmYFDCcE5JRN-24" target="SNL9erzOYmYFDCcE5JRN-29" edge="1">
          <mxGeometry width="50" height="50" relative="1" as="geometry">
            <mxPoint x="390" y="920" as="sourcePoint" />
            <mxPoint x="440" y="870" as="targetPoint" />
          </mxGeometry>
        </mxCell>
        <mxCell id="SNL9erzOYmYFDCcE5JRN-33" value="" style="endArrow=none;dashed=1;html=1;dashPattern=1 3;strokeWidth=2;rounded=0;exitX=1;exitY=0.5;exitDx=0;exitDy=0;entryX=0.033;entryY=0.308;entryDx=0;entryDy=0;entryPerimeter=0;fillColor=#008a00;strokeColor=#005700;" parent="1" source="SNL9erzOYmYFDCcE5JRN-24" target="SNL9erzOYmYFDCcE5JRN-31" edge="1">
          <mxGeometry width="50" height="50" relative="1" as="geometry">
            <mxPoint x="334" y="865" as="sourcePoint" />
            <mxPoint x="480" y="805" as="targetPoint" />
          </mxGeometry>
        </mxCell>
        <mxCell id="SNL9erzOYmYFDCcE5JRN-34" value="" style="endArrow=none;dashed=1;html=1;dashPattern=1 3;strokeWidth=2;rounded=0;entryX=0.062;entryY=0.693;entryDx=0;entryDy=0;entryPerimeter=0;exitX=0.95;exitY=0.643;exitDx=0;exitDy=0;exitPerimeter=0;fillColor=#a20025;strokeColor=#6F0000;" parent="1" source="SNL9erzOYmYFDCcE5JRN-25" target="SNL9erzOYmYFDCcE5JRN-29" edge="1">
          <mxGeometry width="50" height="50" relative="1" as="geometry">
            <mxPoint x="334" y="865" as="sourcePoint" />
            <mxPoint x="493" y="920" as="targetPoint" />
            <Array as="points" />
          </mxGeometry>
        </mxCell>
        <mxCell id="SNL9erzOYmYFDCcE5JRN-41" value="Extend" style="edgeLabel;html=1;align=center;verticalAlign=middle;resizable=0;points=[];" parent="SNL9erzOYmYFDCcE5JRN-34" vertex="1" connectable="0">
          <mxGeometry x="0.3784" y="-3" relative="1" as="geometry">
            <mxPoint as="offset" />
          </mxGeometry>
        </mxCell>
        <mxCell id="SNL9erzOYmYFDCcE5JRN-36" value="" style="endArrow=none;dashed=1;html=1;dashPattern=1 3;strokeWidth=2;rounded=0;entryX=1;entryY=0.5;entryDx=0;entryDy=0;fillColor=#0050ef;strokeColor=#001DBC;" parent="1" source="SNL9erzOYmYFDCcE5JRN-29" target="SNL9erzOYmYFDCcE5JRN-23" edge="1">
          <mxGeometry width="50" height="50" relative="1" as="geometry">
            <mxPoint x="390" y="920" as="sourcePoint" />
            <mxPoint x="440" y="870" as="targetPoint" />
          </mxGeometry>
        </mxCell>
        <mxCell id="SNL9erzOYmYFDCcE5JRN-40" value="«include»." style="edgeLabel;html=1;align=center;verticalAlign=middle;resizable=0;points=[];" parent="SNL9erzOYmYFDCcE5JRN-36" vertex="1" connectable="0">
          <mxGeometry x="0.079" y="1" relative="1" as="geometry">
            <mxPoint as="offset" />
          </mxGeometry>
        </mxCell>
        <mxCell id="SNL9erzOYmYFDCcE5JRN-37" value="" style="endArrow=none;dashed=1;html=1;dashPattern=1 3;strokeWidth=2;rounded=0;exitX=0.023;exitY=0.319;exitDx=0;exitDy=0;exitPerimeter=0;entryX=0.896;entryY=0.793;entryDx=0;entryDy=0;entryPerimeter=0;fillColor=#0050ef;strokeColor=#001DBC;" parent="1" source="SNL9erzOYmYFDCcE5JRN-31" target="SNL9erzOYmYFDCcE5JRN-23" edge="1">
          <mxGeometry width="50" height="50" relative="1" as="geometry">
            <mxPoint x="488" y="795" as="sourcePoint" />
            <mxPoint x="330" y="775" as="targetPoint" />
          </mxGeometry>
        </mxCell>
      </root>
    </mxGraphModel>
  </diagram>
</mxfile>
